# xmcd
#
# Track frame offsets:
#	150
#	12407
#	26570
#	36163
#	48923
#	61681
#	77552
#	96937
#	109872
#	123315
#	142760
#	156954
#	170193
#	187651
#	202934
#	215753
#	227428
#	246101
#	260703
#	271706
#
# Disc length: 3799 seconds
# Revision: 1
# Processed by: cddbd v1.5.2PL0 Copyright (c) Steve Scherf et al.
# Submitted via: dBpowerAMP V12.0
#
DISCID=080ed514
DTITLE=Herb Pedersen - Sandman
DYEAR=2014
DGENRE=Country
TTITLE0=Paperback Writer
TTITLE1=Rock and Roll Cajun
TTITLE2=If I Can Sing A Song
TTITLE3=Our Baby's Gone
TTITLE4=Harvest Home
TTITLE5=The Hey Boys
TTITLE6=Jesus Once Again
TTITLE7=Younger Days
TTITLE8=Can't You Hear Me Callin'
TTITLE9=Wait A Minute
TTITLE10=Sandman
TTITLE11=When She Makes Love To Me
TTITLE12=Cora Is Gone
TTITLE13=Is That Any Way To Love You
TTITLE14=Fair And Tender Ladies
TTITLE15=Tennessee Sal
TTITLE16=About Love Again
TTITLE17=Bring Back The Smile
TTITLE18=My Little Man
TTITLE19=If I Lose
EXTD=
EXTT0=
EXTT1=
EXTT2=
EXTT3=
EXTT4=
EXTT5=
EXTT6=
EXTT7=
EXTT8=
EXTT9=
EXTT10=
EXTT11=
EXTT12=
EXTT13=
EXTT14=
EXTT15=
EXTT16=
EXTT17=
EXTT18=
EXTT19=
PLAYORDER=
